<mxfile host="app.diagrams.net" modified="2021-12-24T09:07:10.635Z" agent="5.0 (Windows NT 10.0; Win64; x64) AppleWebKit/537.36 (KHTML, like Gecko) Chrome/96.0.4664.110 Safari/537.36" etag="qys8Tft3Nnio1khcSyEa" version="16.0.3" type="github" pages="2">
  <diagram id="IhKAoPoE0tZihIorcKFJ" name="Tổng quát">
    <mxGraphModel dx="1888" dy="1647" grid="1" gridSize="10" guides="1" tooltips="1" connect="1" arrows="1" fold="1" page="1" pageScale="1" pageWidth="850" pageHeight="1100" math="0" shadow="0">
      <root>
        <mxCell id="oIVjYY7uEm0dZzIf-1jH-0" />
        <mxCell id="oIVjYY7uEm0dZzIf-1jH-1" parent="oIVjYY7uEm0dZzIf-1jH-0" />
        <mxCell id="oIVjYY7uEm0dZzIf-1jH-11" style="edgeStyle=orthogonalEdgeStyle;rounded=0;orthogonalLoop=1;jettySize=auto;html=1;entryX=0.5;entryY=1;entryDx=0;entryDy=0;" parent="oIVjYY7uEm0dZzIf-1jH-1" source="oIVjYY7uEm0dZzIf-1jH-2" target="oIVjYY7uEm0dZzIf-1jH-5" edge="1">
          <mxGeometry relative="1" as="geometry" />
        </mxCell>
        <mxCell id="oIVjYY7uEm0dZzIf-1jH-12" style="edgeStyle=orthogonalEdgeStyle;rounded=0;orthogonalLoop=1;jettySize=auto;html=1;entryX=0;entryY=0.5;entryDx=0;entryDy=0;" parent="oIVjYY7uEm0dZzIf-1jH-1" source="oIVjYY7uEm0dZzIf-1jH-2" target="oIVjYY7uEm0dZzIf-1jH-3" edge="1">
          <mxGeometry relative="1" as="geometry" />
        </mxCell>
        <mxCell id="oIVjYY7uEm0dZzIf-1jH-14" style="edgeStyle=orthogonalEdgeStyle;rounded=0;orthogonalLoop=1;jettySize=auto;html=1;" parent="oIVjYY7uEm0dZzIf-1jH-1" source="oIVjYY7uEm0dZzIf-1jH-2" target="oIVjYY7uEm0dZzIf-1jH-9" edge="1">
          <mxGeometry relative="1" as="geometry" />
        </mxCell>
        <mxCell id="oIVjYY7uEm0dZzIf-1jH-15" style="edgeStyle=orthogonalEdgeStyle;rounded=0;orthogonalLoop=1;jettySize=auto;html=1;entryX=1;entryY=0.5;entryDx=0;entryDy=0;" parent="oIVjYY7uEm0dZzIf-1jH-1" source="oIVjYY7uEm0dZzIf-1jH-2" target="oIVjYY7uEm0dZzIf-1jH-7" edge="1">
          <mxGeometry relative="1" as="geometry" />
        </mxCell>
        <mxCell id="oIVjYY7uEm0dZzIf-1jH-2" value="Bánh xe cuộc đời" style="ellipse;whiteSpace=wrap;html=1;aspect=fixed;" parent="oIVjYY7uEm0dZzIf-1jH-1" vertex="1">
          <mxGeometry x="400" y="360" width="80" height="80" as="geometry" />
        </mxCell>
        <mxCell id="oIVjYY7uEm0dZzIf-1jH-3" value="Phát triển bản thân" style="ellipse;whiteSpace=wrap;html=1;" parent="oIVjYY7uEm0dZzIf-1jH-1" vertex="1">
          <mxGeometry x="680" y="360" width="120" height="80" as="geometry" />
        </mxCell>
        <mxCell id="oIVjYY7uEm0dZzIf-1jH-4" value="Sức khỏe" style="ellipse;whiteSpace=wrap;html=1;" parent="oIVjYY7uEm0dZzIf-1jH-1" vertex="1">
          <mxGeometry x="600" y="180" width="120" height="80" as="geometry" />
        </mxCell>
        <mxCell id="oIVjYY7uEm0dZzIf-1jH-5" value="Tâm Linh" style="ellipse;whiteSpace=wrap;html=1;" parent="oIVjYY7uEm0dZzIf-1jH-1" vertex="1">
          <mxGeometry x="380" y="120" width="120" height="80" as="geometry" />
        </mxCell>
        <mxCell id="oIVjYY7uEm0dZzIf-1jH-6" value="Tài chính" style="ellipse;whiteSpace=wrap;html=1;" parent="oIVjYY7uEm0dZzIf-1jH-1" vertex="1">
          <mxGeometry x="160" y="180" width="120" height="80" as="geometry" />
        </mxCell>
        <mxCell id="oIVjYY7uEm0dZzIf-1jH-7" value="Chia Sẻ" style="ellipse;whiteSpace=wrap;html=1;" parent="oIVjYY7uEm0dZzIf-1jH-1" vertex="1">
          <mxGeometry x="80" y="360" width="120" height="80" as="geometry" />
        </mxCell>
        <mxCell id="oIVjYY7uEm0dZzIf-1jH-8" value="Quan hệ" style="ellipse;whiteSpace=wrap;html=1;" parent="oIVjYY7uEm0dZzIf-1jH-1" vertex="1">
          <mxGeometry x="160" y="530" width="120" height="80" as="geometry" />
        </mxCell>
        <mxCell id="oIVjYY7uEm0dZzIf-1jH-9" value="Giải trí" style="ellipse;whiteSpace=wrap;html=1;" parent="oIVjYY7uEm0dZzIf-1jH-1" vertex="1">
          <mxGeometry x="380" y="600" width="120" height="80" as="geometry" />
        </mxCell>
        <mxCell id="oIVjYY7uEm0dZzIf-1jH-10" value="Sự nghiệp" style="ellipse;whiteSpace=wrap;html=1;" parent="oIVjYY7uEm0dZzIf-1jH-1" vertex="1">
          <mxGeometry x="600" y="530" width="120" height="80" as="geometry" />
        </mxCell>
        <mxCell id="oIVjYY7uEm0dZzIf-1jH-16" value="" style="endArrow=classic;html=1;exitX=1;exitY=0;exitDx=0;exitDy=0;entryX=0;entryY=1;entryDx=0;entryDy=0;" parent="oIVjYY7uEm0dZzIf-1jH-1" source="oIVjYY7uEm0dZzIf-1jH-2" target="oIVjYY7uEm0dZzIf-1jH-4" edge="1">
          <mxGeometry width="50" height="50" relative="1" as="geometry">
            <mxPoint x="510" y="340" as="sourcePoint" />
            <mxPoint x="560" y="290" as="targetPoint" />
          </mxGeometry>
        </mxCell>
        <mxCell id="oIVjYY7uEm0dZzIf-1jH-17" value="" style="endArrow=classic;html=1;exitX=1;exitY=1;exitDx=0;exitDy=0;entryX=0;entryY=0;entryDx=0;entryDy=0;" parent="oIVjYY7uEm0dZzIf-1jH-1" source="oIVjYY7uEm0dZzIf-1jH-2" target="oIVjYY7uEm0dZzIf-1jH-10" edge="1">
          <mxGeometry width="50" height="50" relative="1" as="geometry">
            <mxPoint x="490.00427124746216" y="433.4357287525379" as="sourcePoint" />
            <mxPoint x="679.2935931288073" y="290.00427124746193" as="targetPoint" />
          </mxGeometry>
        </mxCell>
        <mxCell id="oIVjYY7uEm0dZzIf-1jH-18" value="" style="endArrow=classic;html=1;exitX=0;exitY=0;exitDx=0;exitDy=0;entryX=1;entryY=1;entryDx=0;entryDy=0;" parent="oIVjYY7uEm0dZzIf-1jH-1" source="oIVjYY7uEm0dZzIf-1jH-2" target="oIVjYY7uEm0dZzIf-1jH-6" edge="1">
          <mxGeometry width="50" height="50" relative="1" as="geometry">
            <mxPoint x="488.28427124746213" y="391.71572875253787" as="sourcePoint" />
            <mxPoint x="677.5735931288073" y="248.2842712474619" as="targetPoint" />
          </mxGeometry>
        </mxCell>
        <mxCell id="oIVjYY7uEm0dZzIf-1jH-19" value="" style="endArrow=classic;html=1;exitX=0;exitY=1;exitDx=0;exitDy=0;entryX=1;entryY=0;entryDx=0;entryDy=0;" parent="oIVjYY7uEm0dZzIf-1jH-1" source="oIVjYY7uEm0dZzIf-1jH-2" target="oIVjYY7uEm0dZzIf-1jH-8" edge="1">
          <mxGeometry width="50" height="50" relative="1" as="geometry">
            <mxPoint x="498.28427124746213" y="401.71572875253787" as="sourcePoint" />
            <mxPoint x="687.5735931288073" y="258.2842712474619" as="targetPoint" />
          </mxGeometry>
        </mxCell>
        <mxCell id="QVYhyQpB-hnWJUQwBfJ2-0" value="20&amp;nbsp;Kinh &lt;br&gt;mỗi ngày" style="ellipse;shape=cloud;whiteSpace=wrap;html=1;" parent="oIVjYY7uEm0dZzIf-1jH-1" vertex="1">
          <mxGeometry x="320" width="120" height="80" as="geometry" />
        </mxCell>
        <mxCell id="QVYhyQpB-hnWJUQwBfJ2-1" value="10&#39; thiền" style="ellipse;shape=cloud;whiteSpace=wrap;html=1;" parent="oIVjYY7uEm0dZzIf-1jH-1" vertex="1">
          <mxGeometry x="450" width="120" height="80" as="geometry" />
        </mxCell>
        <mxCell id="QVYhyQpB-hnWJUQwBfJ2-2" value="Tinh Thần luôn&lt;br&gt;vui tươi" style="ellipse;shape=cloud;whiteSpace=wrap;html=1;" parent="oIVjYY7uEm0dZzIf-1jH-1" vertex="1">
          <mxGeometry x="750" y="130" width="120" height="80" as="geometry" />
        </mxCell>
        <mxCell id="QVYhyQpB-hnWJUQwBfJ2-3" value="Giữ 65kg" style="ellipse;shape=cloud;whiteSpace=wrap;html=1;" parent="oIVjYY7uEm0dZzIf-1jH-1" vertex="1">
          <mxGeometry x="620" y="70" width="140" height="80" as="geometry" />
        </mxCell>
        <mxCell id="QVYhyQpB-hnWJUQwBfJ2-4" value="Read news &lt;br&gt;30p/n" style="ellipse;shape=cloud;whiteSpace=wrap;html=1;" parent="oIVjYY7uEm0dZzIf-1jH-1" vertex="1">
          <mxGeometry x="810" y="430" width="120" height="80" as="geometry" />
        </mxCell>
        <mxCell id="QVYhyQpB-hnWJUQwBfJ2-5" value="Đọc sách 30p/n&lt;br&gt;" style="ellipse;shape=cloud;whiteSpace=wrap;html=1;" parent="oIVjYY7uEm0dZzIf-1jH-1" vertex="1">
          <mxGeometry x="820" y="320" width="120" height="80" as="geometry" />
        </mxCell>
        <mxCell id="QVYhyQpB-hnWJUQwBfJ2-6" value="Chuyên gia giáo &lt;br&gt;dục" style="ellipse;shape=cloud;whiteSpace=wrap;html=1;" parent="oIVjYY7uEm0dZzIf-1jH-1" vertex="1">
          <mxGeometry x="650" y="640" width="120" height="80" as="geometry" />
        </mxCell>
        <mxCell id="QVYhyQpB-hnWJUQwBfJ2-7" value="Cty Fx" style="ellipse;shape=cloud;whiteSpace=wrap;html=1;" parent="oIVjYY7uEm0dZzIf-1jH-1" vertex="1">
          <mxGeometry x="750" y="560" width="120" height="80" as="geometry" />
        </mxCell>
        <mxCell id="QVYhyQpB-hnWJUQwBfJ2-8" value="Đi nước ngoài&lt;br&gt;1 lần/ năm" style="ellipse;shape=cloud;whiteSpace=wrap;html=1;" parent="oIVjYY7uEm0dZzIf-1jH-1" vertex="1">
          <mxGeometry x="310" y="700" width="120" height="80" as="geometry" />
        </mxCell>
        <mxCell id="QVYhyQpB-hnWJUQwBfJ2-9" value="Đi du lịch&amp;nbsp;&lt;br&gt;2 lần/ năm" style="ellipse;shape=cloud;whiteSpace=wrap;html=1;" parent="oIVjYY7uEm0dZzIf-1jH-1" vertex="1">
          <mxGeometry x="450" y="700" width="120" height="80" as="geometry" />
        </mxCell>
        <mxCell id="QVYhyQpB-hnWJUQwBfJ2-10" value="Giữ liên lạc vs&lt;br&gt;những mqh thân&lt;br&gt;1 tháng/ lần" style="ellipse;shape=cloud;whiteSpace=wrap;html=1;" parent="oIVjYY7uEm0dZzIf-1jH-1" vertex="1">
          <mxGeometry x="-10" y="540" width="120" height="80" as="geometry" />
        </mxCell>
        <mxCell id="QVYhyQpB-hnWJUQwBfJ2-11" value="Gọi dt hỏi thăm&amp;nbsp;&lt;br&gt;những người thân&amp;nbsp;&lt;br&gt;thường xuyên" style="ellipse;shape=cloud;whiteSpace=wrap;html=1;" parent="oIVjYY7uEm0dZzIf-1jH-1" vertex="1">
          <mxGeometry x="80" y="640" width="120" height="80" as="geometry" />
        </mxCell>
        <mxCell id="QVYhyQpB-hnWJUQwBfJ2-12" value="Website for&lt;br&gt;Java &amp;amp; forex" style="ellipse;shape=cloud;whiteSpace=wrap;html=1;" parent="oIVjYY7uEm0dZzIf-1jH-1" vertex="1">
          <mxGeometry x="-70" y="300" width="120" height="80" as="geometry" />
        </mxCell>
        <mxCell id="QVYhyQpB-hnWJUQwBfJ2-13" value="Youtube for&lt;br&gt;Java &amp;amp; forex" style="ellipse;shape=cloud;whiteSpace=wrap;html=1;" parent="oIVjYY7uEm0dZzIf-1jH-1" vertex="1">
          <mxGeometry x="-70" y="400" width="120" height="80" as="geometry" />
        </mxCell>
        <mxCell id="QVYhyQpB-hnWJUQwBfJ2-14" value="5 nguồn thu" style="ellipse;shape=cloud;whiteSpace=wrap;html=1;" parent="oIVjYY7uEm0dZzIf-1jH-1" vertex="1">
          <mxGeometry x="80" y="70" width="120" height="80" as="geometry" />
        </mxCell>
        <mxCell id="QVYhyQpB-hnWJUQwBfJ2-15" value="1 tỷ/ 27 =&amp;gt;2 tỷ/28&lt;br&gt;4 tỷ/29 =&amp;gt; 8 tỷ/30&lt;br&gt;16 tỷ/31 =&amp;gt; 32 tỷ/ 32" style="ellipse;shape=cloud;whiteSpace=wrap;html=1;" parent="oIVjYY7uEm0dZzIf-1jH-1" vertex="1">
          <mxGeometry x="-50" y="150" width="160" height="80" as="geometry" />
        </mxCell>
        <mxCell id="bsY_A5dzssTWuJ1jJjyu-0" value="&lt;b&gt;&lt;font style=&quot;font-size: 24px&quot; color=&quot;#ff0000&quot;&gt;Tôi sẽ mở công ty Forex của tôi. Cty tôi trị giá triệu đô&lt;br&gt;12/2026&lt;br&gt;&lt;/font&gt;&lt;/b&gt;" style="text;html=1;strokeColor=none;fillColor=none;align=center;verticalAlign=middle;whiteSpace=wrap;rounded=0;" vertex="1" parent="oIVjYY7uEm0dZzIf-1jH-1">
          <mxGeometry x="30" y="-40" width="800" height="30" as="geometry" />
        </mxCell>
        <mxCell id="rhFgT5BrtLEStSELpOBp-2" value="" style="endArrow=classic;html=1;rounded=0;fontSize=18;fontColor=#FF0000;exitX=0.5;exitY=0;exitDx=0;exitDy=0;entryX=0.55;entryY=0.95;entryDx=0;entryDy=0;entryPerimeter=0;" edge="1" parent="oIVjYY7uEm0dZzIf-1jH-1" source="oIVjYY7uEm0dZzIf-1jH-5" target="QVYhyQpB-hnWJUQwBfJ2-0">
          <mxGeometry width="50" height="50" relative="1" as="geometry">
            <mxPoint x="410" y="220" as="sourcePoint" />
            <mxPoint x="460" y="170" as="targetPoint" />
          </mxGeometry>
        </mxCell>
        <mxCell id="rhFgT5BrtLEStSELpOBp-3" value="" style="endArrow=classic;html=1;rounded=0;fontSize=18;fontColor=#FF0000;exitX=0.5;exitY=0;exitDx=0;exitDy=0;entryX=0.55;entryY=0.95;entryDx=0;entryDy=0;entryPerimeter=0;" edge="1" parent="oIVjYY7uEm0dZzIf-1jH-1" source="oIVjYY7uEm0dZzIf-1jH-5" target="QVYhyQpB-hnWJUQwBfJ2-1">
          <mxGeometry width="50" height="50" relative="1" as="geometry">
            <mxPoint x="450" y="130" as="sourcePoint" />
            <mxPoint x="396" y="86" as="targetPoint" />
          </mxGeometry>
        </mxCell>
        <mxCell id="rhFgT5BrtLEStSELpOBp-4" value="" style="endArrow=classic;html=1;rounded=0;fontSize=18;fontColor=#FF0000;exitX=0.5;exitY=0;exitDx=0;exitDy=0;entryX=0.55;entryY=0.95;entryDx=0;entryDy=0;entryPerimeter=0;" edge="1" parent="oIVjYY7uEm0dZzIf-1jH-1" target="QVYhyQpB-hnWJUQwBfJ2-3">
          <mxGeometry width="50" height="50" relative="1" as="geometry">
            <mxPoint x="704" y="192" as="sourcePoint" />
            <mxPoint x="650" y="148" as="targetPoint" />
          </mxGeometry>
        </mxCell>
        <mxCell id="rhFgT5BrtLEStSELpOBp-6" value="" style="endArrow=classic;html=1;rounded=0;fontSize=18;fontColor=#FF0000;exitX=1;exitY=0;exitDx=0;exitDy=0;entryX=0.16;entryY=0.55;entryDx=0;entryDy=0;entryPerimeter=0;" edge="1" parent="oIVjYY7uEm0dZzIf-1jH-1" source="oIVjYY7uEm0dZzIf-1jH-4" target="QVYhyQpB-hnWJUQwBfJ2-2">
          <mxGeometry width="50" height="50" relative="1" as="geometry">
            <mxPoint x="710" y="190" as="sourcePoint" />
            <mxPoint x="770" y="130" as="targetPoint" />
          </mxGeometry>
        </mxCell>
        <mxCell id="rhFgT5BrtLEStSELpOBp-7" value="" style="endArrow=classic;html=1;rounded=0;fontSize=18;fontColor=#FF0000;entryX=0.13;entryY=0.77;entryDx=0;entryDy=0;entryPerimeter=0;" edge="1" parent="oIVjYY7uEm0dZzIf-1jH-1" target="QVYhyQpB-hnWJUQwBfJ2-5">
          <mxGeometry width="50" height="50" relative="1" as="geometry">
            <mxPoint x="800" y="400" as="sourcePoint" />
            <mxPoint x="850" y="350" as="targetPoint" />
          </mxGeometry>
        </mxCell>
        <mxCell id="rhFgT5BrtLEStSELpOBp-8" value="" style="endArrow=classic;html=1;rounded=0;fontSize=18;fontColor=#FF0000;entryX=0.4;entryY=0.1;entryDx=0;entryDy=0;entryPerimeter=0;exitX=1;exitY=0.5;exitDx=0;exitDy=0;" edge="1" parent="oIVjYY7uEm0dZzIf-1jH-1" source="oIVjYY7uEm0dZzIf-1jH-3" target="QVYhyQpB-hnWJUQwBfJ2-4">
          <mxGeometry width="50" height="50" relative="1" as="geometry">
            <mxPoint x="810" y="440" as="sourcePoint" />
            <mxPoint x="860" y="390" as="targetPoint" />
          </mxGeometry>
        </mxCell>
        <mxCell id="rhFgT5BrtLEStSELpOBp-9" value="" style="endArrow=classic;html=1;rounded=0;fontSize=18;fontColor=#FF0000;exitX=1;exitY=1;exitDx=0;exitDy=0;entryX=0.07;entryY=0.4;entryDx=0;entryDy=0;entryPerimeter=0;" edge="1" parent="oIVjYY7uEm0dZzIf-1jH-1" source="oIVjYY7uEm0dZzIf-1jH-10" target="QVYhyQpB-hnWJUQwBfJ2-7">
          <mxGeometry width="50" height="50" relative="1" as="geometry">
            <mxPoint x="740" y="540" as="sourcePoint" />
            <mxPoint x="790" y="490" as="targetPoint" />
          </mxGeometry>
        </mxCell>
        <mxCell id="rhFgT5BrtLEStSELpOBp-10" value="" style="endArrow=classic;html=1;rounded=0;fontSize=18;fontColor=#FF0000;entryX=0.4;entryY=0.1;entryDx=0;entryDy=0;entryPerimeter=0;exitX=1;exitY=1;exitDx=0;exitDy=0;" edge="1" parent="oIVjYY7uEm0dZzIf-1jH-1" source="oIVjYY7uEm0dZzIf-1jH-10" target="QVYhyQpB-hnWJUQwBfJ2-6">
          <mxGeometry width="50" height="50" relative="1" as="geometry">
            <mxPoint x="410" y="620" as="sourcePoint" />
            <mxPoint x="460" y="570" as="targetPoint" />
          </mxGeometry>
        </mxCell>
        <mxCell id="rhFgT5BrtLEStSELpOBp-11" value="" style="endArrow=classic;html=1;rounded=0;fontSize=18;fontColor=#FF0000;entryX=0.4;entryY=0.1;entryDx=0;entryDy=0;entryPerimeter=0;exitX=0.5;exitY=1;exitDx=0;exitDy=0;" edge="1" parent="oIVjYY7uEm0dZzIf-1jH-1" source="oIVjYY7uEm0dZzIf-1jH-9" target="QVYhyQpB-hnWJUQwBfJ2-9">
          <mxGeometry width="50" height="50" relative="1" as="geometry">
            <mxPoint x="410" y="620" as="sourcePoint" />
            <mxPoint x="460" y="570" as="targetPoint" />
          </mxGeometry>
        </mxCell>
        <mxCell id="rhFgT5BrtLEStSELpOBp-12" value="" style="endArrow=classic;html=1;rounded=0;fontSize=18;fontColor=#FF0000;entryX=0.4;entryY=0.1;entryDx=0;entryDy=0;entryPerimeter=0;exitX=0.5;exitY=1;exitDx=0;exitDy=0;" edge="1" parent="oIVjYY7uEm0dZzIf-1jH-1" source="oIVjYY7uEm0dZzIf-1jH-9" target="QVYhyQpB-hnWJUQwBfJ2-8">
          <mxGeometry width="50" height="50" relative="1" as="geometry">
            <mxPoint x="410" y="620" as="sourcePoint" />
            <mxPoint x="460" y="570" as="targetPoint" />
          </mxGeometry>
        </mxCell>
        <mxCell id="rhFgT5BrtLEStSELpOBp-13" value="" style="endArrow=classic;html=1;rounded=0;fontSize=18;fontColor=#FF0000;exitX=0;exitY=1;exitDx=0;exitDy=0;entryX=0.625;entryY=0.2;entryDx=0;entryDy=0;entryPerimeter=0;" edge="1" parent="oIVjYY7uEm0dZzIf-1jH-1" source="oIVjYY7uEm0dZzIf-1jH-8" target="QVYhyQpB-hnWJUQwBfJ2-11">
          <mxGeometry width="50" height="50" relative="1" as="geometry">
            <mxPoint x="410" y="620" as="sourcePoint" />
            <mxPoint x="460" y="570" as="targetPoint" />
          </mxGeometry>
        </mxCell>
        <mxCell id="rhFgT5BrtLEStSELpOBp-14" value="" style="endArrow=classic;html=1;rounded=0;fontSize=18;fontColor=#FF0000;exitX=0;exitY=1;exitDx=0;exitDy=0;entryX=0.96;entryY=0.7;entryDx=0;entryDy=0;entryPerimeter=0;" edge="1" parent="oIVjYY7uEm0dZzIf-1jH-1" source="oIVjYY7uEm0dZzIf-1jH-8" target="QVYhyQpB-hnWJUQwBfJ2-10">
          <mxGeometry width="50" height="50" relative="1" as="geometry">
            <mxPoint x="410" y="620" as="sourcePoint" />
            <mxPoint x="460" y="570" as="targetPoint" />
          </mxGeometry>
        </mxCell>
        <mxCell id="rhFgT5BrtLEStSELpOBp-15" value="" style="endArrow=classic;html=1;rounded=0;fontSize=18;fontColor=#FF0000;exitX=0;exitY=0.5;exitDx=0;exitDy=0;entryX=0.88;entryY=0.25;entryDx=0;entryDy=0;entryPerimeter=0;" edge="1" parent="oIVjYY7uEm0dZzIf-1jH-1" source="oIVjYY7uEm0dZzIf-1jH-7" target="QVYhyQpB-hnWJUQwBfJ2-13">
          <mxGeometry width="50" height="50" relative="1" as="geometry">
            <mxPoint x="410" y="320" as="sourcePoint" />
            <mxPoint x="460" y="270" as="targetPoint" />
          </mxGeometry>
        </mxCell>
        <mxCell id="rhFgT5BrtLEStSELpOBp-16" value="" style="endArrow=classic;html=1;rounded=0;fontSize=18;fontColor=#FF0000;exitX=0;exitY=0.5;exitDx=0;exitDy=0;entryX=0.8;entryY=0.8;entryDx=0;entryDy=0;entryPerimeter=0;" edge="1" parent="oIVjYY7uEm0dZzIf-1jH-1" source="oIVjYY7uEm0dZzIf-1jH-7" target="QVYhyQpB-hnWJUQwBfJ2-12">
          <mxGeometry width="50" height="50" relative="1" as="geometry">
            <mxPoint x="90" y="360" as="sourcePoint" />
            <mxPoint x="140" y="310" as="targetPoint" />
          </mxGeometry>
        </mxCell>
        <mxCell id="rhFgT5BrtLEStSELpOBp-17" value="" style="endArrow=classic;html=1;rounded=0;fontSize=18;fontColor=#FF0000;exitX=0;exitY=0;exitDx=0;exitDy=0;entryX=0.96;entryY=0.7;entryDx=0;entryDy=0;entryPerimeter=0;" edge="1" parent="oIVjYY7uEm0dZzIf-1jH-1" source="oIVjYY7uEm0dZzIf-1jH-6" target="QVYhyQpB-hnWJUQwBfJ2-15">
          <mxGeometry width="50" height="50" relative="1" as="geometry">
            <mxPoint x="410" y="320" as="sourcePoint" />
            <mxPoint x="460" y="270" as="targetPoint" />
          </mxGeometry>
        </mxCell>
        <mxCell id="rhFgT5BrtLEStSELpOBp-18" value="" style="endArrow=classic;html=1;rounded=0;fontSize=18;fontColor=#FF0000;exitX=0;exitY=0;exitDx=0;exitDy=0;entryX=0.55;entryY=0.95;entryDx=0;entryDy=0;entryPerimeter=0;" edge="1" parent="oIVjYY7uEm0dZzIf-1jH-1" source="oIVjYY7uEm0dZzIf-1jH-6" target="QVYhyQpB-hnWJUQwBfJ2-14">
          <mxGeometry width="50" height="50" relative="1" as="geometry">
            <mxPoint x="220" y="170" as="sourcePoint" />
            <mxPoint x="270" y="120" as="targetPoint" />
          </mxGeometry>
        </mxCell>
      </root>
    </mxGraphModel>
  </diagram>
  <diagram id="fzwqWTzXhX1J5zMu2Ijj" name="Chi Tiết">
    <mxGraphModel dx="1038" dy="1647" grid="1" gridSize="10" guides="1" tooltips="1" connect="1" arrows="1" fold="1" page="1" pageScale="1" pageWidth="850" pageHeight="1100" math="0" shadow="0">
      <root>
        <mxCell id="cLIWXOucjfkJkp2h_SFB-0" />
        <mxCell id="cLIWXOucjfkJkp2h_SFB-1" parent="cLIWXOucjfkJkp2h_SFB-0" />
        <mxCell id="JViX6E7lW5uzwaHUk6LS-9" style="edgeStyle=orthogonalEdgeStyle;rounded=0;orthogonalLoop=1;jettySize=auto;html=1;exitX=1;exitY=0.5;exitDx=0;exitDy=0;entryX=0;entryY=0.5;entryDx=0;entryDy=0;" edge="1" parent="cLIWXOucjfkJkp2h_SFB-1" source="cLIWXOucjfkJkp2h_SFB-2" target="cLIWXOucjfkJkp2h_SFB-5">
          <mxGeometry relative="1" as="geometry" />
        </mxCell>
        <mxCell id="JViX6E7lW5uzwaHUk6LS-10" style="edgeStyle=orthogonalEdgeStyle;rounded=0;orthogonalLoop=1;jettySize=auto;html=1;exitX=0;exitY=0.5;exitDx=0;exitDy=0;entryX=0;entryY=0.5;entryDx=0;entryDy=0;" edge="1" parent="cLIWXOucjfkJkp2h_SFB-1" source="JViX6E7lW5uzwaHUk6LS-0" target="cLIWXOucjfkJkp2h_SFB-3">
          <mxGeometry relative="1" as="geometry">
            <Array as="points">
              <mxPoint x="270" y="280" />
              <mxPoint x="270" y="170" />
            </Array>
          </mxGeometry>
        </mxCell>
        <mxCell id="cLIWXOucjfkJkp2h_SFB-2" value="Senior JAVA" style="rounded=0;whiteSpace=wrap;html=1;" vertex="1" parent="cLIWXOucjfkJkp2h_SFB-1">
          <mxGeometry x="60" y="140" width="120" height="60" as="geometry" />
        </mxCell>
        <mxCell id="cLIWXOucjfkJkp2h_SFB-3" value="Trader forex" style="rounded=0;whiteSpace=wrap;html=1;" vertex="1" parent="cLIWXOucjfkJkp2h_SFB-1">
          <mxGeometry x="360" y="140" width="120" height="60" as="geometry" />
        </mxCell>
        <mxCell id="cLIWXOucjfkJkp2h_SFB-5" value="Chia sẻ JAVA &amp;amp; FX" style="rounded=0;whiteSpace=wrap;html=1;" vertex="1" parent="cLIWXOucjfkJkp2h_SFB-1">
          <mxGeometry x="360" y="30" width="120" height="60" as="geometry" />
        </mxCell>
        <mxCell id="JViX6E7lW5uzwaHUk6LS-15" style="edgeStyle=orthogonalEdgeStyle;rounded=0;orthogonalLoop=1;jettySize=auto;html=1;exitX=1;exitY=0.5;exitDx=0;exitDy=0;entryX=0;entryY=0.5;entryDx=0;entryDy=0;" edge="1" parent="cLIWXOucjfkJkp2h_SFB-1" source="cLIWXOucjfkJkp2h_SFB-6" target="JViX6E7lW5uzwaHUk6LS-13">
          <mxGeometry relative="1" as="geometry" />
        </mxCell>
        <mxCell id="cLIWXOucjfkJkp2h_SFB-6" value="Giáo Dục Trade" style="rounded=0;whiteSpace=wrap;html=1;" vertex="1" parent="cLIWXOucjfkJkp2h_SFB-1">
          <mxGeometry x="620" y="200" width="120" height="60" as="geometry" />
        </mxCell>
        <mxCell id="_duYhDSYcmQhYfucXR_f-0" value="Viết BOT đơn giản lắm, ai cũng có thể học và viết được. Nhưng cần phải tạo hệ thống server và quảng bá thì cần trình độ cao hơn." style="text;html=1;strokeColor=none;fillColor=none;align=center;verticalAlign=middle;whiteSpace=wrap;rounded=0;" vertex="1" parent="cLIWXOucjfkJkp2h_SFB-1">
          <mxGeometry x="600" y="130" width="650" height="30" as="geometry" />
        </mxCell>
        <mxCell id="JViX6E7lW5uzwaHUk6LS-0" value="Viết Bot Forex" style="rounded=0;whiteSpace=wrap;html=1;" vertex="1" parent="cLIWXOucjfkJkp2h_SFB-1">
          <mxGeometry x="360" y="250" width="120" height="60" as="geometry" />
        </mxCell>
        <mxCell id="JViX6E7lW5uzwaHUk6LS-1" value="Wordpress cource" style="rounded=0;whiteSpace=wrap;html=1;" vertex="1" parent="cLIWXOucjfkJkp2h_SFB-1">
          <mxGeometry x="30" y="590" width="120" height="60" as="geometry" />
        </mxCell>
        <mxCell id="JViX6E7lW5uzwaHUk6LS-2" value="Java SE" style="rounded=0;whiteSpace=wrap;html=1;" vertex="1" parent="cLIWXOucjfkJkp2h_SFB-1">
          <mxGeometry x="280" y="550" width="120" height="60" as="geometry" />
        </mxCell>
        <mxCell id="JViX6E7lW5uzwaHUk6LS-3" value="Java EE" style="rounded=0;whiteSpace=wrap;html=1;" vertex="1" parent="cLIWXOucjfkJkp2h_SFB-1">
          <mxGeometry x="280" y="630" width="120" height="60" as="geometry" />
        </mxCell>
        <mxCell id="JViX6E7lW5uzwaHUk6LS-4" value="Spring Framework: Boot, JPA, hibernate" style="rounded=0;whiteSpace=wrap;html=1;" vertex="1" parent="cLIWXOucjfkJkp2h_SFB-1">
          <mxGeometry x="280" y="720" width="120" height="60" as="geometry" />
        </mxCell>
        <mxCell id="JViX6E7lW5uzwaHUk6LS-5" value="DB: Mysql, oracle, SQL, Postgres, Mongo, Dynamo, Redis" style="rounded=0;whiteSpace=wrap;html=1;" vertex="1" parent="cLIWXOucjfkJkp2h_SFB-1">
          <mxGeometry x="280" y="800" width="120" height="60" as="geometry" />
        </mxCell>
        <mxCell id="JViX6E7lW5uzwaHUk6LS-6" value="Message broker" style="rounded=0;whiteSpace=wrap;html=1;" vertex="1" parent="cLIWXOucjfkJkp2h_SFB-1">
          <mxGeometry x="280" y="880" width="120" height="60" as="geometry" />
        </mxCell>
        <mxCell id="JViX6E7lW5uzwaHUk6LS-7" value="Deployment" style="rounded=0;whiteSpace=wrap;html=1;" vertex="1" parent="cLIWXOucjfkJkp2h_SFB-1">
          <mxGeometry x="280" y="960" width="120" height="60" as="geometry" />
        </mxCell>
        <mxCell id="JViX6E7lW5uzwaHUk6LS-11" value="" style="endArrow=classic;html=1;rounded=0;entryX=0;entryY=0.5;entryDx=0;entryDy=0;exitX=1;exitY=0.5;exitDx=0;exitDy=0;" edge="1" parent="cLIWXOucjfkJkp2h_SFB-1" source="cLIWXOucjfkJkp2h_SFB-3" target="cLIWXOucjfkJkp2h_SFB-6">
          <mxGeometry width="50" height="50" relative="1" as="geometry">
            <mxPoint x="400" y="300" as="sourcePoint" />
            <mxPoint x="450" y="250" as="targetPoint" />
          </mxGeometry>
        </mxCell>
        <mxCell id="JViX6E7lW5uzwaHUk6LS-12" value="" style="endArrow=classic;html=1;rounded=0;entryX=0;entryY=0.5;entryDx=0;entryDy=0;exitX=1;exitY=0.5;exitDx=0;exitDy=0;" edge="1" parent="cLIWXOucjfkJkp2h_SFB-1" source="JViX6E7lW5uzwaHUk6LS-0" target="cLIWXOucjfkJkp2h_SFB-6">
          <mxGeometry width="50" height="50" relative="1" as="geometry">
            <mxPoint x="400" y="300" as="sourcePoint" />
            <mxPoint x="450" y="250" as="targetPoint" />
          </mxGeometry>
        </mxCell>
        <mxCell id="JViX6E7lW5uzwaHUk6LS-13" value="- FOREX SOLUTIONS COMPANY&lt;br&gt;- THE FIRST MILLION" style="rounded=0;whiteSpace=wrap;html=1;" vertex="1" parent="cLIWXOucjfkJkp2h_SFB-1">
          <mxGeometry x="790" y="200" width="130" height="60" as="geometry" />
        </mxCell>
        <mxCell id="JViX6E7lW5uzwaHUk6LS-16" value="&lt;h1&gt;GD1: 01/22 - 01/23 Tích lũy &amp;amp; Đầu tư&lt;/h1&gt;&lt;p&gt;Tích lũy kiến thức: Java + Wordpress&lt;/p&gt;&lt;p&gt;Tích lũy tiền từ 50tr/tháng và các mối quan hệ&lt;/p&gt;&lt;p&gt;Đầu tư: Forex, BDS, Coin, Chứng khoán&lt;/p&gt;" style="text;html=1;strokeColor=none;fillColor=none;spacing=5;spacingTop=-20;whiteSpace=wrap;overflow=hidden;rounded=0;" vertex="1" parent="cLIWXOucjfkJkp2h_SFB-1">
          <mxGeometry x="25" y="310" width="215" height="180" as="geometry" />
        </mxCell>
        <mxCell id="JViX6E7lW5uzwaHUk6LS-18" value="&lt;h1&gt;GD2: 01/23 - 01/25 Học trade &amp;amp; Code Fx&lt;/h1&gt;&lt;p&gt;Trade course và&amp;nbsp;&lt;span&gt;Code Robot trade&lt;/span&gt;&lt;/p&gt;&lt;p&gt;&lt;span&gt;Tích lũy tiền từ 100tr/tháng&lt;/span&gt;&lt;/p&gt;&lt;p&gt;Đầu tư: Forex, BDS, Coin, Chứng khoán&lt;br&gt;&lt;/p&gt;" style="text;html=1;strokeColor=none;fillColor=none;spacing=5;spacingTop=-20;whiteSpace=wrap;overflow=hidden;rounded=0;" vertex="1" parent="cLIWXOucjfkJkp2h_SFB-1">
          <mxGeometry x="320" y="311" width="245" height="179" as="geometry" />
        </mxCell>
        <mxCell id="JViX6E7lW5uzwaHUk6LS-19" value="&lt;h1&gt;GD3: 01/25 - 01/27 Xây Dựng Cty FX&lt;/h1&gt;&lt;p&gt;- Nghỉ công việc Java để start up&lt;br&gt;- Tuyển dụng đội ngũ, quảng bá thương hiệu. Luật, và các vấn để liên quan.&lt;/p&gt;&lt;p&gt;- Tích lũy tiền từ 200tr/tháng&lt;/p&gt;&lt;p&gt;- Đầu tư: Forex, BDS, Coin, Chứng khoán&lt;br&gt;&lt;/p&gt;" style="text;html=1;strokeColor=none;fillColor=none;spacing=5;spacingTop=-20;whiteSpace=wrap;overflow=hidden;rounded=0;" vertex="1" parent="cLIWXOucjfkJkp2h_SFB-1">
          <mxGeometry x="650" y="310" width="230" height="190" as="geometry" />
        </mxCell>
        <mxCell id="JViX6E7lW5uzwaHUk6LS-20" value="&lt;b&gt;&lt;font style=&quot;font-size: 24px&quot; color=&quot;#ff0000&quot;&gt;Tôi sẽ mở công ty Forex của tôi. Cty tôi trị giá triệu đô&lt;br&gt;01/2027&lt;br&gt;&lt;/font&gt;&lt;/b&gt;" style="text;html=1;strokeColor=none;fillColor=none;align=center;verticalAlign=middle;whiteSpace=wrap;rounded=0;" vertex="1" parent="cLIWXOucjfkJkp2h_SFB-1">
          <mxGeometry x="30" y="-40" width="800" height="30" as="geometry" />
        </mxCell>
        <mxCell id="JViX6E7lW5uzwaHUk6LS-23" style="edgeStyle=orthogonalEdgeStyle;rounded=0;orthogonalLoop=1;jettySize=auto;html=1;exitX=0.5;exitY=0;exitDx=0;exitDy=0;entryX=0.5;entryY=1;entryDx=0;entryDy=0;fontSize=24;fontColor=#FF0000;" edge="1" parent="cLIWXOucjfkJkp2h_SFB-1" source="JViX6E7lW5uzwaHUk6LS-22" target="JViX6E7lW5uzwaHUk6LS-1">
          <mxGeometry relative="1" as="geometry" />
        </mxCell>
        <mxCell id="JViX6E7lW5uzwaHUk6LS-22" value="Senior JAVA" style="rounded=0;whiteSpace=wrap;html=1;" vertex="1" parent="cLIWXOucjfkJkp2h_SFB-1">
          <mxGeometry x="30" y="750" width="120" height="60" as="geometry" />
        </mxCell>
        <mxCell id="JViX6E7lW5uzwaHUk6LS-24" value="" style="endArrow=classic;html=1;rounded=0;fontSize=24;fontColor=#FF0000;entryX=0;entryY=0.5;entryDx=0;entryDy=0;" edge="1" parent="cLIWXOucjfkJkp2h_SFB-1" target="JViX6E7lW5uzwaHUk6LS-2">
          <mxGeometry width="50" height="50" relative="1" as="geometry">
            <mxPoint x="150" y="780" as="sourcePoint" />
            <mxPoint x="200" y="730" as="targetPoint" />
          </mxGeometry>
        </mxCell>
        <mxCell id="JViX6E7lW5uzwaHUk6LS-25" value="" style="endArrow=classic;html=1;rounded=0;fontSize=24;fontColor=#FF0000;entryX=0;entryY=0.5;entryDx=0;entryDy=0;exitX=1;exitY=0.5;exitDx=0;exitDy=0;" edge="1" parent="cLIWXOucjfkJkp2h_SFB-1" source="JViX6E7lW5uzwaHUk6LS-22" target="JViX6E7lW5uzwaHUk6LS-3">
          <mxGeometry width="50" height="50" relative="1" as="geometry">
            <mxPoint x="160" y="790" as="sourcePoint" />
            <mxPoint x="290" y="590" as="targetPoint" />
          </mxGeometry>
        </mxCell>
        <mxCell id="JViX6E7lW5uzwaHUk6LS-26" value="" style="endArrow=classic;html=1;rounded=0;fontSize=24;fontColor=#FF0000;entryX=0;entryY=0.5;entryDx=0;entryDy=0;" edge="1" parent="cLIWXOucjfkJkp2h_SFB-1" target="JViX6E7lW5uzwaHUk6LS-4">
          <mxGeometry width="50" height="50" relative="1" as="geometry">
            <mxPoint x="150" y="780" as="sourcePoint" />
            <mxPoint x="300" y="600" as="targetPoint" />
          </mxGeometry>
        </mxCell>
        <mxCell id="JViX6E7lW5uzwaHUk6LS-27" value="" style="endArrow=classic;html=1;rounded=0;fontSize=24;fontColor=#FF0000;entryX=0;entryY=0.5;entryDx=0;entryDy=0;" edge="1" parent="cLIWXOucjfkJkp2h_SFB-1" target="JViX6E7lW5uzwaHUk6LS-5">
          <mxGeometry width="50" height="50" relative="1" as="geometry">
            <mxPoint x="150" y="780" as="sourcePoint" />
            <mxPoint x="310" y="610" as="targetPoint" />
          </mxGeometry>
        </mxCell>
        <mxCell id="JViX6E7lW5uzwaHUk6LS-28" value="" style="endArrow=classic;html=1;rounded=0;fontSize=24;fontColor=#FF0000;entryX=0;entryY=0.5;entryDx=0;entryDy=0;" edge="1" parent="cLIWXOucjfkJkp2h_SFB-1" target="JViX6E7lW5uzwaHUk6LS-6">
          <mxGeometry width="50" height="50" relative="1" as="geometry">
            <mxPoint x="150" y="780" as="sourcePoint" />
            <mxPoint x="320" y="620" as="targetPoint" />
          </mxGeometry>
        </mxCell>
        <mxCell id="JViX6E7lW5uzwaHUk6LS-29" value="" style="endArrow=classic;html=1;rounded=0;fontSize=24;fontColor=#FF0000;entryX=0;entryY=0.5;entryDx=0;entryDy=0;exitX=1;exitY=0.5;exitDx=0;exitDy=0;" edge="1" parent="cLIWXOucjfkJkp2h_SFB-1" source="JViX6E7lW5uzwaHUk6LS-22" target="JViX6E7lW5uzwaHUk6LS-7">
          <mxGeometry width="50" height="50" relative="1" as="geometry">
            <mxPoint x="200" y="830" as="sourcePoint" />
            <mxPoint x="330" y="630" as="targetPoint" />
          </mxGeometry>
        </mxCell>
        <mxCell id="yCMi8IMOK49qRuQBBclT-0" value="&lt;font style=&quot;font-size: 18px&quot;&gt;Các nguồn thu: Lương cty, hoa hồng fx, lãi fx, chứng khoán, youtube &amp;amp; cource, BDS&lt;/font&gt;" style="text;html=1;strokeColor=none;fillColor=none;align=center;verticalAlign=middle;whiteSpace=wrap;rounded=0;fontSize=24;fontColor=#FF0000;" vertex="1" parent="cLIWXOucjfkJkp2h_SFB-1">
          <mxGeometry x="25" y="500" width="855" height="30" as="geometry" />
        </mxCell>
      </root>
    </mxGraphModel>
  </diagram>
</mxfile>
